<?xml version="1.0" standalone="no"?>
<!DOCTYPE svg PUBLIC "-//W3C//DTD SVG 20010904//EN"
 "http://www.w3.org/TR/2001/REC-SVG-20010904/DTD/svg10.dtd">
<svg version="1.0" xmlns="http://www.w3.org/2000/svg"
 width="360.000000pt" height="200.000000pt" viewBox="0 0 360.000000 200.000000"
 preserveAspectRatio="xMidYMid meet">

<g transform="translate(0.000000,200.000000) scale(0.100000,-0.100000)"
fill="#000000" stroke="none">
<path d="M2202 1433 l3 -118 128 -3 127 -3 0 121 0 120 -130 0 -131 0 3 -117z"/>
<path d="M1873 1399 l-123 -72 0 -43 c0 -40 -2 -44 -25 -44 l-26 0 3 -112 c3
-109 4 -113 26 -116 22 -3 22 -5 22 -180 0 -321 33 -372 238 -372 44 0 83 4
87 9 3 6 16 66 29 135 l23 126 -39 0 c-68 0 -78 20 -78 159 l0 120 48 3 47 3
3 113 c2 95 0 112 -13 113 -8 1 -31 2 -50 3 l-35 1 0 113 c0 61 -3 112 -7 112
-5 0 -63 -32 -130 -71z"/>
<path d="M2810 1244 c-74 -20 -126 -52 -184 -113 -59 -64 -95 -141 -104 -223
-15 -134 19 -237 109 -333 231 -244 652 -94 677 243 4 61 4 62 -20 62 -14 0
-38 10 -54 23 -20 16 -42 22 -75 22 -36 0 -53 6 -73 24 -14 14 -26 30 -26 38
0 7 -17 21 -38 32 -53 27 -66 46 -67 96 -1 31 -9 51 -28 75 -15 17 -27 40 -27
51 0 23 -15 23 -90 3z m191 -280 c60 -58 63 -148 6 -208 -61 -65 -153 -54
-205 24 -34 50 -27 128 14 171 38 41 60 50 112 45 31 -3 52 -12 73 -32z"/>
<path d="M482 1232 c-74 -27 -156 -86 -198 -143 -56 -77 -78 -148 -78 -259 -1
-82 3 -103 26 -152 83 -179 280 -267 467 -209 83 26 152 79 204 159 39 59 77
139 77 160 0 4 -54 -19 -120 -52 -96 -48 -132 -61 -179 -64 -69 -5 -120 2
-145 21 -15 11 12 27 213 121 225 106 231 109 224 135 -29 121 -97 212 -197
261 -84 41 -213 51 -294 22z m196 -208 c12 -8 22 -18 22 -23 0 -10 -248 -126
-255 -119 -12 12 10 70 39 103 52 60 134 77 194 39z"/>
<path d="M1183 1242 c-34 -4 -63 -9 -66 -12 -2 -3 -11 -42 -19 -87 l-15 -82
128 2 c116 2 130 0 156 -19 34 -25 48 -93 16 -79 -128 55 -284 3 -345 -115
-24 -44 -28 -65 -28 -129 0 -151 75 -242 217 -266 48 -8 143 15 163 40 17 21
30 19 30 -5 0 -19 7 -20 110 -20 l110 0 0 283 c0 155 -5 302 -11 327 -26 117
-95 158 -278 164 -58 3 -134 1 -168 -2z m203 -446 c35 -29 37 -87 5 -119 -31
-32 -87 -28 -117 7 -32 37 -30 71 5 107 36 35 70 37 107 5z"/>
<path d="M2313 1242 l-113 -3 0 -384 0 -385 130 0 130 0 -2 387 c-3 335 -5
386 -18 387 -8 1 -66 0 -127 -2z"/>
<path d="M2566 514 c-21 -20 -20 -27 3 -48 36 -33 83 18 49 52 -16 16 -33 15
-52 -4z"/>
<path d="M3199 509 c-9 -18 -7 -25 9 -41 16 -16 23 -18 41 -9 23 13 28 40 9
59 -19 19 -46 14 -59 -9z"/>
<path d="M3361 487 c-14 -17 3 -41 23 -34 9 4 16 13 16 21 0 19 -26 28 -39 13z"/>
<path d="M3300 464 c0 -9 5 -14 12 -12 18 6 21 28 4 28 -9 0 -16 -7 -16 -16z"/>
</g>
</svg>
